# This file uses centimeters as units for non-parametric coordinates.

mtllib stopper.mtl
g default
v -0.015076 0.421433 0.021889
v 0.015076 0.421433 0.021889
v -0.015076 0.421433 0.082944
v 0.015076 0.421433 0.082944
v -0.015076 0.478568 0.082944
v 0.015076 0.478568 0.082944
v -0.015076 0.478568 0.021889
v 0.015076 0.478568 0.021889
v -0.015076 0.478568 0.000000
v 0.015076 0.478568 0.000000
v 0.015076 0.421433 0.000000
v -0.015076 0.421433 0.000000
v 0.052746 0.478568 0.021889
v 0.052746 0.421433 0.021889
v 0.052746 0.421433 0.000000
v 0.052746 0.478568 0.000000
v -0.052746 0.478568 0.021889
v -0.052746 0.421433 0.021889
v -0.052746 0.478568 0.000000
v -0.052746 0.421433 0.000000
v -0.007765 0.750000 0.049456
v 0.007765 0.750000 0.049456
v 0.021213 0.750000 0.057220
v 0.028978 0.750000 0.070669
v 0.028978 0.750000 0.086198
v 0.021213 0.750000 0.099646
v 0.007765 0.750000 0.107411
v -0.007765 0.750000 0.107411
v -0.021213 0.750000 0.099647
v -0.028978 0.750000 0.086198
v -0.028978 0.750000 0.070669
v -0.021213 0.750000 0.057220
v -0.007765 -0.750000 0.049456
v 0.007765 -0.750000 0.049456
v 0.021213 -0.750000 0.057220
v 0.028978 -0.750000 0.070669
v 0.028978 -0.750000 0.086198
v 0.021213 -0.750000 0.099646
v 0.007765 -0.750000 0.107411
v -0.007765 -0.750000 0.107411
v -0.021213 -0.750000 0.099647
v -0.028978 -0.750000 0.086198
v -0.028978 -0.750000 0.070669
v -0.021213 -0.750000 0.057220
v 0.000000 0.750000 0.078433
v 0.000000 -0.750000 0.078433
v -0.007765 -0.450000 0.049456
v -0.021213 -0.450000 0.057220
v -0.028978 -0.450000 0.070669
v -0.028978 -0.450000 0.086198
v -0.021213 -0.450000 0.099647
v -0.007765 -0.450000 0.107411
v 0.007765 -0.450000 0.107411
v 0.021213 -0.450000 0.099647
v 0.028978 -0.450000 0.086198
v 0.028978 -0.450000 0.070669
v 0.021213 -0.450000 0.057220
v 0.007765 -0.450000 0.049456
v -0.007765 -0.150000 0.049456
v -0.021213 -0.150000 0.057220
v -0.028978 -0.150000 0.070669
v -0.028978 -0.150000 0.086198
v -0.021213 -0.150000 0.099647
v -0.007765 -0.150000 0.107411
v 0.007765 -0.150000 0.107411
v 0.021213 -0.150000 0.099646
v 0.028978 -0.150000 0.086198
v 0.028978 -0.150000 0.070669
v 0.021213 -0.150000 0.057220
v 0.007765 -0.150000 0.049456
v -0.007765 0.150000 0.049456
v -0.021213 0.150000 0.057220
v -0.028978 0.150000 0.070669
v -0.028978 0.150000 0.086198
v -0.021213 0.150000 0.099647
v -0.007765 0.150000 0.107411
v 0.007765 0.150000 0.107411
v 0.021213 0.150000 0.099646
v 0.028978 0.150000 0.086198
v 0.028978 0.150000 0.070669
v 0.021213 0.150000 0.057220
v 0.007765 0.150000 0.049456
v -0.007765 0.450000 0.049456
v -0.021213 0.450000 0.057220
v -0.028978 0.450000 0.070669
v -0.028978 0.450000 0.086198
v -0.021213 0.450000 0.099647
v -0.007765 0.450000 0.107411
v 0.007765 0.450000 0.107411
v 0.021213 0.450000 0.099646
v 0.028978 0.450000 0.086198
v 0.028978 0.450000 0.070669
v 0.021213 0.450000 0.057220
v 0.007765 0.450000 0.049456
v -0.015076 -0.478567 0.021889
v 0.015076 -0.478567 0.021889
v -0.015076 -0.478567 0.082944
v 0.015076 -0.478567 0.082944
v -0.015076 -0.421432 0.082944
v 0.015076 -0.421432 0.082944
v -0.015076 -0.421432 0.021889
v 0.015076 -0.421432 0.021889
v -0.015076 -0.421432 0.000000
v 0.015076 -0.421432 0.000000
v 0.015076 -0.478567 0.000000
v -0.015076 -0.478567 0.000000
v 0.052746 -0.421432 0.021889
v 0.052746 -0.478567 0.021889
v 0.052746 -0.478567 0.000000
v 0.052746 -0.421432 0.000000
v -0.052746 -0.421432 0.021889
v -0.052746 -0.478567 0.021889
v -0.052746 -0.421432 0.000000
v -0.052746 -0.478567 0.000000
vt 0.745747 0.758725
vt 0.955689 0.758725
vt 0.955689 0.983069
vt 0.745747 0.983069
vt 0.530583 0.758725
vt 0.740525 0.758725
vt 0.740525 0.983070
vt 0.530583 0.983070
vt 0.995051 0.263403
vt 0.995051 0.473345
vt 0.914621 0.473345
vt 0.914621 0.263403
vt 0.909398 0.263403
vt 0.909398 0.473345
vt 0.828968 0.473345
vt 0.828968 0.263403
vt 0.846477 0.018446
vt 0.957274 0.018446
vt 0.957274 0.228387
vt 0.846477 0.228387
vt 0.522155 0.528362
vt 0.613584 0.528362
vt 0.613584 0.701605
vt 0.522155 0.701605
vt 0.727805 0.528362
vt 0.727805 0.701605
vt 0.407933 0.701605
vt 0.407933 0.528362
vt 0.528071 0.226182
vt 0.528071 0.016240
vt 0.666488 0.016240
vt 0.666488 0.226182
vt 0.810992 0.016240
vt 0.810992 0.226182
vt 0.672575 0.226182
vt 0.672575 0.016240
vt 0.500478 0.359016
vt 0.500478 0.248220
vt 0.724822 0.248220
vt 0.724822 0.359016
vt 0.420047 0.359016
vt 0.420047 0.248220
vt 0.500478 0.497433
vt 0.420047 0.497433
vt 0.420047 0.109803
vt 0.500478 0.109803
vt 0.515399 0.482989
vt 0.515399 0.372193
vt 0.739744 0.372193
vt 0.739744 0.482989
vt 0.820174 0.372193
vt 0.820174 0.482990
vt 0.739744 0.233776
vt 0.820174 0.233776
vt 0.820174 0.621406
vt 0.739744 0.621406
vt 0.024044 0.024657
vt 0.055127 0.024657
vt 0.055127 0.161213
vt 0.024044 0.161213
vt 0.086209 0.024657
vt 0.086209 0.161213
vt 0.117292 0.024657
vt 0.117292 0.161213
vt 0.148374 0.024657
vt 0.148374 0.161213
vt 0.179457 0.024657
vt 0.179457 0.161213
vt 0.210539 0.024657
vt 0.210539 0.161213
vt 0.241622 0.024657
vt 0.241622 0.161213
vt 0.272704 0.024657
vt 0.272704 0.161213
vt 0.303787 0.024657
vt 0.303787 0.161213
vt 0.334869 0.024657
vt 0.334869 0.161213
vt 0.365952 0.024657
vt 0.365952 0.161213
vt 0.397034 0.024657
vt 0.397034 0.161213
vt 0.449778 0.750147
vt 0.494409 0.794779
vt 0.388810 0.850869
vt 0.388810 0.733811
vt 0.327842 0.750147
vt 0.283211 0.794779
vt 0.266875 0.855747
vt 0.283211 0.916714
vt 0.327842 0.961346
vt 0.388810 0.977682
vt 0.449778 0.961346
vt 0.494409 0.916714
vt 0.510745 0.855747
vt 0.241692 0.914652
vt 0.197061 0.959283
vt 0.136093 0.848807
vt 0.136093 0.975620
vt 0.075125 0.959283
vt 0.030494 0.914652
vt 0.014157 0.853684
vt 0.030494 0.792717
vt 0.075125 0.748085
vt 0.136093 0.731749
vt 0.197061 0.748085
vt 0.241692 0.792717
vt 0.258028 0.853684
vt 0.365952 0.570879
vt 0.397034 0.570879
vt 0.397034 0.707434
vt 0.365952 0.707434
vt 0.334869 0.570879
vt 0.334869 0.707434
vt 0.303787 0.570879
vt 0.303787 0.707434
vt 0.272704 0.570879
vt 0.272704 0.707434
vt 0.241622 0.570879
vt 0.241622 0.707434
vt 0.210539 0.570879
vt 0.210539 0.707434
vt 0.179457 0.570879
vt 0.179457 0.707434
vt 0.148374 0.570879
vt 0.148374 0.707434
vt 0.117292 0.570879
vt 0.117292 0.707434
vt 0.086209 0.570879
vt 0.086209 0.707434
vt 0.055127 0.570879
vt 0.055127 0.707434
vt 0.024044 0.570879
vt 0.024044 0.707434
vt 0.365952 0.434324
vt 0.397034 0.434324
vt 0.334869 0.434324
vt 0.303787 0.434324
vt 0.272704 0.434324
vt 0.241622 0.434324
vt 0.210539 0.434324
vt 0.179457 0.434324
vt 0.148374 0.434324
vt 0.117292 0.434324
vt 0.086209 0.434324
vt 0.055127 0.434324
vt 0.024044 0.434324
vt 0.365952 0.297768
vt 0.397034 0.297768
vt 0.334869 0.297768
vt 0.303787 0.297768
vt 0.272704 0.297768
vt 0.241622 0.297768
vt 0.210539 0.297768
vt 0.179457 0.297768
vt 0.148374 0.297768
vt 0.117292 0.297768
vt 0.086209 0.297768
vt 0.055127 0.297768
vt 0.024044 0.297768
vt 0.500478 0.359016
vt 0.500478 0.248220
vt 0.724822 0.248220
vt 0.724822 0.359016
vt 0.846477 0.018446
vt 0.957274 0.018446
vt 0.957274 0.228387
vt 0.846477 0.228387
vt 0.515399 0.482989
vt 0.515399 0.372193
vt 0.739744 0.372193
vt 0.739744 0.482989
vt 0.522155 0.528362
vt 0.613584 0.528362
vt 0.613584 0.701605
vt 0.522155 0.701605
vt 0.745747 0.758725
vt 0.955689 0.758725
vt 0.955689 0.983069
vt 0.745747 0.983069
vt 0.530583 0.758725
vt 0.740525 0.758725
vt 0.740525 0.983070
vt 0.530583 0.983070
vt 0.820174 0.372193
vt 0.820174 0.482990
vt 0.995051 0.263403
vt 0.995051 0.473345
vt 0.914621 0.473345
vt 0.914621 0.263403
vt 0.420047 0.359016
vt 0.420047 0.248220
vt 0.909398 0.263403
vt 0.909398 0.473345
vt 0.828968 0.473345
vt 0.828968 0.263403
vt 0.528071 0.226182
vt 0.528071 0.016240
vt 0.666488 0.016240
vt 0.666488 0.226182
vt 0.420047 0.109803
vt 0.500478 0.109803
vt 0.727805 0.528362
vt 0.727805 0.701605
vt 0.739744 0.233776
vt 0.820174 0.233776
vt 0.810992 0.016240
vt 0.810992 0.226182
vt 0.672575 0.226182
vt 0.672575 0.016240
vt 0.820174 0.621406
vt 0.739744 0.621406
vt 0.407933 0.701605
vt 0.407933 0.528362
vt 0.500478 0.497433
vt 0.420047 0.497433
vn 0.000000 -1.000000 0.000000
vn 0.000000 -1.000000 0.000000
vn 0.000000 -1.000000 0.000000
vn 0.000000 -1.000000 0.000000
vn 0.000000 0.000000 1.000000
vn 0.000000 0.000000 1.000000
vn 0.000000 0.000000 1.000000
vn 0.000000 0.000000 1.000000
vn 0.000000 1.000000 0.000000
vn 0.000000 1.000000 0.000000
vn 0.000000 1.000000 0.000000
vn 0.000000 1.000000 0.000000
vn 0.000000 -0.000000 -1.000000
vn 0.000000 -0.000000 -1.000000
vn 0.000000 -0.000000 -1.000000
vn 0.000000 -0.000000 -1.000000
vn 1.000000 0.000000 0.000000
vn 1.000000 0.000000 0.000000
vn 1.000000 0.000000 0.000000
vn 1.000000 0.000000 0.000000
vn -1.000000 0.000000 0.000000
vn -1.000000 0.000000 0.000000
vn -1.000000 0.000000 0.000000
vn -1.000000 0.000000 0.000000
vn 0.000000 1.000000 0.000000
vn 0.000000 1.000000 0.000000
vn 0.000000 1.000000 0.000000
vn 0.000000 1.000000 0.000000
vn 1.000000 0.000000 0.000000
vn 1.000000 0.000000 0.000000
vn 1.000000 0.000000 0.000000
vn 1.000000 0.000000 0.000000
vn 0.000000 -1.000000 0.000000
vn 0.000000 -1.000000 0.000000
vn 0.000000 -1.000000 0.000000
vn 0.000000 -1.000000 0.000000
vn -1.000000 0.000000 0.000000
vn -1.000000 0.000000 0.000000
vn -1.000000 0.000000 0.000000
vn -1.000000 0.000000 0.000000
vn 0.000000 0.000000 1.000000
vn 0.000000 0.000000 1.000000
vn 0.000000 0.000000 1.000000
vn 0.000000 0.000000 1.000000
vn 0.000000 -1.000000 0.000000
vn 0.000000 -1.000000 0.000000
vn 0.000000 -1.000000 0.000000
vn 0.000000 -1.000000 0.000000
vn 0.000000 -0.000000 -1.000000
vn 0.000000 -0.000000 -1.000000
vn 0.000000 -0.000000 -1.000000
vn 0.000000 -0.000000 -1.000000
vn 0.000000 1.000000 0.000000
vn 0.000000 1.000000 0.000000
vn 0.000000 1.000000 0.000000
vn 0.000000 1.000000 0.000000
vn 0.000000 0.000000 1.000000
vn 0.000000 0.000000 1.000000
vn 0.000000 0.000000 1.000000
vn 0.000000 0.000000 1.000000
vn 0.000000 1.000000 0.000000
vn 0.000000 1.000000 0.000000
vn 0.000000 1.000000 0.000000
vn 0.000000 1.000000 0.000000
vn 0.000000 -0.000000 -1.000000
vn 0.000000 -0.000000 -1.000000
vn 0.000000 -0.000000 -1.000000
vn 0.000000 -0.000000 -1.000000
vn 0.000000 -1.000000 0.000000
vn 0.000000 -1.000000 0.000000
vn 0.000000 -1.000000 0.000000
vn 0.000000 -1.000000 0.000000
vn -0.258818 0.000000 -0.965926
vn 0.258819 -0.000000 -0.965926
vn -0.258819 0.000000 -0.965926
vn 0.258819 -0.000000 -0.965926
vn 0.707107 -0.000000 -0.707107
vn 0.707107 0.000000 -0.707107
vn 0.965926 -0.000000 -0.258819
vn 0.965926 0.000000 -0.258819
vn 0.965926 0.000000 0.258819
vn 0.965926 0.000000 0.258818
vn 0.707107 0.000000 0.707107
vn 0.707107 0.000000 0.707107
vn 0.258820 0.000000 0.965926
vn 0.258820 0.000000 0.965926
vn -0.258818 0.000000 0.965926
vn -0.258818 -0.000000 0.965926
vn -0.707107 0.000000 0.707107
vn -0.707107 -0.000000 0.707107
vn -0.965926 0.000000 0.258818
vn -0.965926 -0.000000 0.258818
vn -0.965926 0.000000 -0.258820
vn -0.965926 -0.000000 -0.258820
vn -0.707107 0.000000 -0.707107
vn -0.707107 0.000000 -0.707107
vn 0.000000 1.000000 0.000000
vn 0.000000 1.000000 0.000000
vn 0.000000 1.000000 0.000000
vn 0.000000 1.000000 0.000000
vn 0.000000 1.000000 0.000000
vn 0.000000 1.000000 0.000000
vn 0.000000 1.000000 0.000000
vn 0.000000 1.000000 0.000000
vn 0.000000 1.000000 0.000000
vn 0.000000 1.000000 0.000000
vn 0.000000 1.000000 0.000000
vn 0.000000 1.000000 0.000000
vn 0.000000 1.000000 0.000000
vn 0.000000 1.000000 0.000000
vn 0.000000 1.000000 0.000000
vn 0.000000 1.000000 0.000000
vn 0.000000 1.000000 0.000000
vn 0.000000 1.000000 0.000000
vn 0.000000 1.000000 0.000000
vn 0.000000 1.000000 0.000000
vn 0.000000 1.000000 0.000000
vn 0.000000 1.000000 0.000000
vn 0.000000 1.000000 0.000000
vn 0.000000 1.000000 0.000000
vn 0.000000 1.000000 0.000000
vn 0.000000 1.000000 0.000000
vn 0.000000 1.000000 0.000000
vn 0.000000 1.000000 0.000000
vn 0.000000 1.000000 0.000000
vn 0.000000 1.000000 0.000000
vn 0.000000 1.000000 0.000000
vn 0.000000 1.000000 0.000000
vn 0.000000 1.000000 0.000000
vn 0.000000 1.000000 0.000000
vn 0.000000 1.000000 0.000000
vn 0.000000 1.000000 0.000000
vn 0.000000 -1.000000 0.000000
vn 0.000000 -1.000000 0.000000
vn 0.000000 -1.000000 0.000000
vn 0.000000 -1.000000 0.000000
vn 0.000000 -1.000000 0.000000
vn 0.000000 -1.000000 0.000000
vn 0.000000 -1.000000 0.000000
vn 0.000000 -1.000000 0.000000
vn 0.000000 -1.000000 0.000000
vn 0.000000 -1.000000 0.000000
vn 0.000000 -1.000000 0.000000
vn 0.000000 -1.000000 0.000000
vn 0.000000 -1.000000 0.000000
vn 0.000000 -1.000000 0.000000
vn 0.000000 -1.000000 0.000000
vn 0.000000 -1.000000 0.000000
vn 0.000000 -1.000000 0.000000
vn 0.000000 -1.000000 0.000000
vn 0.000000 -1.000000 0.000000
vn 0.000000 -1.000000 0.000000
vn 0.000000 -1.000000 0.000000
vn 0.000000 -1.000000 0.000000
vn 0.000000 -1.000000 0.000000
vn 0.000000 -1.000000 0.000000
vn 0.000000 -1.000000 0.000000
vn 0.000000 -1.000000 0.000000
vn 0.000000 -1.000000 0.000000
vn 0.000000 -1.000000 0.000000
vn 0.000000 -1.000000 0.000000
vn 0.000000 -1.000000 0.000000
vn 0.000000 -1.000000 0.000000
vn 0.000000 -1.000000 0.000000
vn 0.000000 -1.000000 0.000000
vn 0.000000 -1.000000 0.000000
vn 0.000000 -1.000000 0.000000
vn 0.000000 -1.000000 0.000000
vn -0.707107 0.000000 -0.707107
vn -0.258820 0.000000 -0.965926
vn -0.707107 -0.000000 -0.707107
vn -0.258819 -0.000000 -0.965926
vn -0.965926 0.000000 -0.258819
vn -0.965926 -0.000000 -0.258819
vn -0.965926 -0.000000 0.258819
vn -0.965926 0.000000 0.258819
vn -0.707107 0.000000 0.707107
vn -0.707107 0.000000 0.707107
vn -0.258819 -0.000000 0.965926
vn -0.258819 0.000000 0.965926
vn 0.258819 -0.000000 0.965926
vn 0.258819 -0.000000 0.965926
vn 0.707107 -0.000000 0.707106
vn 0.707107 0.000000 0.707107
vn 0.965926 -0.000000 0.258819
vn 0.965926 0.000000 0.258819
vn 0.965926 -0.000000 -0.258818
vn 0.965926 -0.000000 -0.258818
vn 0.707107 -0.000000 -0.707106
vn 0.707107 -0.000000 -0.707107
vn 0.258819 -0.000000 -0.965926
vn 0.258818 -0.000000 -0.965926
vn -0.707107 0.000000 -0.707107
vn -0.258819 0.000000 -0.965926
vn -0.965926 -0.000000 -0.258819
vn -0.965926 0.000000 0.258819
vn -0.707107 0.000000 0.707107
vn -0.258819 0.000000 0.965926
vn 0.258819 0.000000 0.965926
vn 0.707107 0.000000 0.707107
vn 0.965926 0.000000 0.258819
vn 0.965926 0.000000 -0.258818
vn 0.707107 0.000000 -0.707107
vn 0.258818 0.000000 -0.965926
vn -0.707107 0.000000 -0.707107
vn -0.258819 0.000000 -0.965926
vn -0.965926 0.000000 -0.258819
vn -0.965926 -0.000000 0.258819
vn -0.707107 -0.000000 0.707107
vn -0.258819 -0.000000 0.965926
vn 0.258819 -0.000000 0.965926
vn 0.707107 0.000000 0.707107
vn 0.965926 0.000000 0.258819
vn 0.965926 0.000000 -0.258818
vn 0.707107 0.000000 -0.707107
vn 0.258818 0.000000 -0.965926
vn 0.000000 -1.000000 0.000000
vn 0.000000 -1.000000 0.000000
vn 0.000000 -1.000000 0.000000
vn 0.000000 -1.000000 0.000000
vn 0.000000 0.000000 1.000000
vn 0.000000 0.000000 1.000000
vn 0.000000 0.000000 1.000000
vn 0.000000 0.000000 1.000000
vn 0.000000 1.000000 0.000000
vn 0.000000 1.000000 0.000000
vn 0.000000 1.000000 0.000000
vn 0.000000 1.000000 0.000000
vn 0.000000 -0.000000 -1.000000
vn 0.000000 -0.000000 -1.000000
vn 0.000000 -0.000000 -1.000000
vn 0.000000 -0.000000 -1.000000
vn 1.000000 0.000000 0.000000
vn 1.000000 0.000000 0.000000
vn 1.000000 0.000000 0.000000
vn 1.000000 0.000000 0.000000
vn -1.000000 0.000000 0.000000
vn -1.000000 0.000000 0.000000
vn -1.000000 0.000000 0.000000
vn -1.000000 0.000000 0.000000
vn 0.000000 1.000000 0.000000
vn 0.000000 1.000000 0.000000
vn 0.000000 1.000000 0.000000
vn 0.000000 1.000000 0.000000
vn 1.000000 0.000000 0.000000
vn 1.000000 0.000000 0.000000
vn 1.000000 0.000000 0.000000
vn 1.000000 0.000000 0.000000
vn 0.000000 -1.000000 0.000000
vn 0.000000 -1.000000 0.000000
vn 0.000000 -1.000000 0.000000
vn 0.000000 -1.000000 0.000000
vn -1.000000 0.000000 0.000000
vn -1.000000 0.000000 0.000000
vn -1.000000 0.000000 0.000000
vn -1.000000 0.000000 0.000000
vn 0.000000 0.000000 1.000000
vn 0.000000 0.000000 1.000000
vn 0.000000 0.000000 1.000000
vn 0.000000 0.000000 1.000000
vn 0.000000 -1.000000 0.000000
vn 0.000000 -1.000000 0.000000
vn 0.000000 -1.000000 0.000000
vn 0.000000 -1.000000 0.000000
vn 0.000000 -0.000000 -1.000000
vn 0.000000 -0.000000 -1.000000
vn 0.000000 -0.000000 -1.000000
vn 0.000000 -0.000000 -1.000000
vn 0.000000 1.000000 0.000000
vn 0.000000 1.000000 0.000000
vn 0.000000 1.000000 0.000000
vn 0.000000 1.000000 0.000000
vn 0.000000 0.000000 1.000000
vn 0.000000 0.000000 1.000000
vn 0.000000 0.000000 1.000000
vn 0.000000 0.000000 1.000000
vn 0.000000 1.000000 0.000000
vn 0.000000 1.000000 0.000000
vn 0.000000 1.000000 0.000000
vn 0.000000 1.000000 0.000000
vn 0.000000 -0.000000 -1.000000
vn 0.000000 -0.000000 -1.000000
vn 0.000000 -0.000000 -1.000000
vn 0.000000 -0.000000 -1.000000
vn 0.000000 -1.000000 0.000000
vn 0.000000 -1.000000 0.000000
vn 0.000000 -1.000000 0.000000
vn 0.000000 -1.000000 0.000000
g pCube2
usemtl lambert2SG
f 1/37/1 2/38/2 3/40/3
f 3/40/3 2/38/2 4/39/4
f 3/17/5 4/18/6 5/20/7
f 5/20/7 4/18/6 6/19/8
f 5/47/9 6/48/10 7/50/11
f 7/50/11 6/48/10 8/49/12
f 9/21/13 10/22/14 12/24/15
f 12/24/15 10/22/14 11/23/16
f 2/1/17 8/2/18 4/4/19
f 4/4/19 8/2/18 6/3/20
f 7/5/21 1/6/22 5/8/23
f 5/8/23 1/6/22 3/7/24
f 7/50/25 8/49/26 9/52/27
f 9/52/27 8/49/26 10/51/28
usemtl texturedFacets
f 13/9/29 14/10/30 16/12/31
f 16/12/31 14/10/30 15/11/32
usemtl lambert2SG
f 2/38/33 1/37/34 11/42/35
f 11/42/35 1/37/34 12/41/36
f 18/13/37 17/14/38 20/16/39
f 20/16/39 17/14/38 19/15/40
f 8/29/41 2/30/42 13/32/43
f 13/32/43 2/30/42 14/31/44
f 2/38/45 11/42/46 14/46/47
f 14/46/47 11/42/46 15/45/48
f 11/23/49 10/22/50 15/26/51
f 15/26/51 10/22/50 16/25/52
f 10/51/53 8/49/54 16/54/55
f 16/54/55 8/49/54 13/53/56
f 1/33/57 7/34/58 18/36/59
f 18/36/59 7/34/58 17/35/60
f 7/50/61 9/52/62 17/56/63
f 17/56/63 9/52/62 19/55/64
f 9/21/65 12/24/66 19/28/67
f 19/28/67 12/24/66 20/27/68
f 12/41/69 1/37/70 20/44/71
f 20/44/71 1/37/70 18/43/72
f 21/57/73 22/58/74 83/60/75
f 83/60/75 22/58/74 94/59/76
f 22/58/74 23/61/77 94/59/76
f 94/59/76 23/61/77 93/62/78
f 23/61/77 24/63/79 93/62/78
f 93/62/78 24/63/79 92/64/80
f 24/63/79 25/65/81 92/64/80
f 92/64/80 25/65/81 91/66/82
f 25/65/81 26/67/83 91/66/82
f 91/66/82 26/67/83 90/68/84
f 26/67/83 27/69/85 90/68/84
f 90/68/84 27/69/85 89/70/86
f 27/69/85 28/71/87 89/70/86
f 89/70/86 28/71/87 88/72/88
f 28/71/87 29/73/89 88/72/88
f 88/72/88 29/73/89 87/74/90
f 29/73/89 30/75/91 87/74/90
f 87/74/90 30/75/91 86/76/92
f 30/75/91 31/77/93 86/76/92
f 86/76/92 31/77/93 85/78/94
f 31/77/93 32/79/95 85/78/94
f 85/78/94 32/79/95 84/80/96
f 32/79/95 21/81/73 84/80/96
f 84/80/96 21/81/73 83/82/75
f 22/83/97 21/84/98 45/85/99
f 23/86/100 22/83/101 45/85/102
f 24/87/103 23/86/104 45/85/105
f 25/88/106 24/87/107 45/85/108
f 26/89/109 25/88/110 45/85/111
f 27/90/112 26/89/113 45/85/114
f 28/91/115 27/90/116 45/85/117
f 29/92/118 28/91/119 45/85/120
f 30/93/121 29/92/122 45/85/123
f 31/94/124 30/93/125 45/85/126
f 32/95/127 31/94/128 45/85/129
f 21/84/130 32/95/131 45/85/132
f 33/96/133 34/97/134 46/98/135
f 34/97/136 35/99/137 46/98/138
f 35/99/139 36/100/140 46/98/141
f 36/100/142 37/101/143 46/98/144
f 37/101/145 38/102/146 46/98/147
f 38/102/148 39/103/149 46/98/150
f 39/103/151 40/104/152 46/98/153
f 40/104/154 41/105/155 46/98/156
f 41/105/157 42/106/158 46/98/159
f 42/106/160 43/107/161 46/98/162
f 43/107/163 44/108/164 46/98/165
f 44/108/166 33/96/167 46/98/168
f 48/109/169 47/110/170 44/112/171
f 44/112/171 47/110/170 33/111/172
f 49/113/173 48/109/169 43/114/174
f 43/114/174 48/109/169 44/112/171
f 50/115/175 49/113/173 42/116/176
f 42/116/176 49/113/173 43/114/174
f 51/117/177 50/115/175 41/118/178
f 41/118/178 50/115/175 42/116/176
f 52/119/179 51/117/177 40/120/180
f 40/120/180 51/117/177 41/118/178
f 53/121/181 52/119/179 39/122/182
f 39/122/182 52/119/179 40/120/180
f 54/123/183 53/121/181 38/124/184
f 38/124/184 53/121/181 39/122/182
f 55/125/185 54/123/183 37/126/186
f 37/126/186 54/123/183 38/124/184
f 56/127/187 55/125/185 36/128/188
f 36/128/188 55/125/185 37/126/186
f 57/129/189 56/127/187 35/130/190
f 35/130/190 56/127/187 36/128/188
f 58/131/191 57/129/189 34/132/192
f 34/132/192 57/129/189 35/130/190
f 47/133/170 58/131/191 33/134/172
f 33/134/172 58/131/191 34/132/192
f 60/135/193 59/136/194 48/109/169
f 48/109/169 59/136/194 47/110/170
f 61/137/195 60/135/193 49/113/173
f 49/113/173 60/135/193 48/109/169
f 62/138/196 61/137/195 50/115/175
f 50/115/175 61/137/195 49/113/173
f 63/139/197 62/138/196 51/117/177
f 51/117/177 62/138/196 50/115/175
f 64/140/198 63/139/197 52/119/179
f 52/119/179 63/139/197 51/117/177
f 65/141/199 64/140/198 53/121/181
f 53/121/181 64/140/198 52/119/179
f 66/142/200 65/141/199 54/123/183
f 54/123/183 65/141/199 53/121/181
f 67/143/201 66/142/200 55/125/185
f 55/125/185 66/142/200 54/123/183
f 68/144/202 67/143/201 56/127/187
f 56/127/187 67/143/201 55/125/185
f 69/145/203 68/144/202 57/129/189
f 57/129/189 68/144/202 56/127/187
f 70/146/204 69/145/203 58/131/191
f 58/131/191 69/145/203 57/129/189
f 59/147/194 70/146/204 47/133/170
f 47/133/170 70/146/204 58/131/191
f 72/148/205 71/149/206 60/135/193
f 60/135/193 71/149/206 59/136/194
f 73/150/207 72/148/205 61/137/195
f 61/137/195 72/148/205 60/135/193
f 74/151/208 73/150/207 62/138/196
f 62/138/196 73/150/207 61/137/195
f 75/152/209 74/151/208 63/139/197
f 63/139/197 74/151/208 62/138/196
f 76/153/210 75/152/209 64/140/198
f 64/140/198 75/152/209 63/139/197
f 77/154/211 76/153/210 65/141/199
f 65/141/199 76/153/210 64/140/198
f 78/155/212 77/154/211 66/142/200
f 66/142/200 77/154/211 65/141/199
f 79/156/213 78/155/212 67/143/201
f 67/143/201 78/155/212 66/142/200
f 80/157/214 79/156/213 68/144/202
f 68/144/202 79/156/213 67/143/201
f 81/158/215 80/157/214 69/145/203
f 69/145/203 80/157/214 68/144/202
f 82/159/216 81/158/215 70/146/204
f 70/146/204 81/158/215 69/145/203
f 71/160/206 82/159/216 59/147/194
f 59/147/194 82/159/216 70/146/204
f 84/80/96 83/82/75 72/148/205
f 72/148/205 83/82/75 71/149/206
f 85/78/94 84/80/96 73/150/207
f 73/150/207 84/80/96 72/148/205
f 86/76/92 85/78/94 74/151/208
f 74/151/208 85/78/94 73/150/207
f 87/74/90 86/76/92 75/152/209
f 75/152/209 86/76/92 74/151/208
f 88/72/88 87/74/90 76/153/210
f 76/153/210 87/74/90 75/152/209
f 89/70/86 88/72/88 77/154/211
f 77/154/211 88/72/88 76/153/210
f 90/68/84 89/70/86 78/155/212
f 78/155/212 89/70/86 77/154/211
f 91/66/82 90/68/84 79/156/213
f 79/156/213 90/68/84 78/155/212
f 92/64/80 91/66/82 80/157/214
f 80/157/214 91/66/82 79/156/213
f 93/62/78 92/64/80 81/158/215
f 81/158/215 92/64/80 80/157/214
f 94/59/76 93/62/78 82/159/216
f 82/159/216 93/62/78 81/158/215
f 83/60/75 94/59/76 71/160/206
f 71/160/206 94/59/76 82/159/216
f 95/161/217 96/162/218 97/164/219
f 97/164/219 96/162/218 98/163/220
f 97/165/221 98/166/222 99/168/223
f 99/168/223 98/166/222 100/167/224
f 99/169/225 100/170/226 101/172/227
f 101/172/227 100/170/226 102/171/228
f 103/173/229 104/174/230 106/176/231
f 106/176/231 104/174/230 105/175/232
f 96/177/233 102/178/234 98/180/235
f 98/180/235 102/178/234 100/179/236
f 101/181/237 95/182/238 99/184/239
f 99/184/239 95/182/238 97/183/240
f 101/172/241 102/171/242 103/186/243
f 103/186/243 102/171/242 104/185/244
usemtl texturedFacets
f 107/187/245 108/188/246 110/190/247
f 110/190/247 108/188/246 109/189/248
usemtl lambert2SG
f 96/162/249 95/161/250 105/192/251
f 105/192/251 95/161/250 106/191/252
f 112/193/253 111/194/254 114/196/255
f 114/196/255 111/194/254 113/195/256
f 102/197/257 96/198/258 107/200/259
f 107/200/259 96/198/258 108/199/260
f 96/162/261 105/192/262 108/202/263
f 108/202/263 105/192/262 109/201/264
f 105/175/265 104/174/266 109/204/267
f 109/204/267 104/174/266 110/203/268
f 104/185/269 102/171/270 110/206/271
f 110/206/271 102/171/270 107/205/272
f 95/207/273 101/208/274 112/210/275
f 112/210/275 101/208/274 111/209/276
f 101/172/277 103/186/278 111/212/279
f 111/212/279 103/186/278 113/211/280
f 103/173/281 106/176/282 113/214/283
f 113/214/283 106/176/282 114/213/284
f 106/191/285 95/161/286 114/216/287
f 114/216/287 95/161/286 112/215/288
